<svg width="20" height="21" viewBox="0 0 20 21" fill="none" xmlns="http://www.w3.org/2000/svg">
<path d="M6 14.1016C6 14.8972 5.68393 15.6603 5.12132 16.2229C4.55871 16.7855 3.79565 17.1016 3 17.1016M14 14.1016C14 14.8972 14.3161 15.6603 14.8787 16.2229C15.4413 16.7855 16.2044 17.1016 17 17.1016M10 14.1016V18.1016M1 5.10156C1 4.57113 1.21071 4.06242 1.58579 3.68735C1.96086 3.31228 2.46957 3.10156 3 3.10156H17C17.5304 3.10156 18.0391 3.31228 18.4142 3.68735C18.7893 4.06242 19 4.57113 19 5.10156V9.10156C19 9.632 18.7893 10.1407 18.4142 10.5158C18.0391 10.8908 17.5304 11.1016 17 11.1016H3C2.46957 11.1016 1.96086 10.8908 1.58579 10.5158C1.21071 10.1407 1 9.632 1 9.10156V5.10156Z" stroke="#18547F" stroke-width="2" stroke-linecap="round" stroke-linejoin="round"/>
<path d="M5 11.1016V8.10156C5 7.83635 5.10536 7.58199 5.29289 7.39446C5.48043 7.20692 5.73478 7.10156 6 7.10156H14C14.2652 7.10156 14.5196 7.20692 14.7071 7.39446C14.8946 7.58199 15 7.83635 15 8.10156V11.1016" stroke="#18547F" stroke-width="2" stroke-linecap="round" stroke-linejoin="round"/>
</svg>
