<svg width="20" height="21" viewBox="0 0 20 21" fill="none" xmlns="http://www.w3.org/2000/svg">
<g clip-path="url(#clip0_293_2043)">
<path d="M9.79575 2.95081C10.0386 2.95921 10.2688 3.0616 10.4376 3.23639C10.6065 3.41118 10.7008 3.6447 10.7008 3.88773C10.7008 4.13075 10.6065 4.36428 10.4376 4.53907C10.2688 4.71386 10.0386 4.81625 9.79575 4.82465L5.8713 4.82464L15.488 14.4413V10.5169C15.4964 10.274 15.5987 10.0438 15.7735 9.87499C15.9483 9.70614 16.1818 9.61176 16.4249 9.61176C16.6679 9.61176 16.9014 9.70614 17.0762 9.87499C17.251 10.0438 17.3534 10.274 17.3618 10.5169L17.3618 16.704C17.3616 16.9525 17.2629 17.1907 17.0872 17.3664C16.9115 17.542 16.6733 17.6408 16.4249 17.641L10.2377 17.641C10.0694 17.6472 9.90254 17.6079 9.7547 17.5273C9.60686 17.4466 9.48351 17.3276 9.39764 17.1827C9.31177 17.0379 9.26656 16.8725 9.26678 16.7041C9.267 16.5357 9.31264 16.3705 9.39888 16.2259C9.48468 16.0812 9.60783 15.9622 9.75541 15.8815C9.903 15.8008 10.0696 15.7613 10.2377 15.7671L14.1621 15.7671L4.54548 6.15047V10.0749C4.55171 10.2432 4.51244 10.4101 4.4318 10.5579C4.35116 10.7057 4.23214 10.8291 4.08727 10.915C3.9424 11.0008 3.77706 11.046 3.60865 11.0458C3.44025 11.0456 3.27502 11 3.13038 10.9137C2.9857 10.8279 2.86676 10.7048 2.78605 10.5572C2.70534 10.4096 2.66582 10.243 2.67164 10.0749L2.67165 3.88773C2.6718 3.63929 2.77056 3.40107 2.94623 3.2254C3.1219 3.04973 3.36012 2.95097 3.60856 2.95081L9.79575 2.95081Z" fill="#18547F"/>
</g>
<defs>
<clipPath id="clip0_293_2043">
<rect width="20" height="20" fill="white" transform="translate(0 0.601562)"/>
</clipPath>
</defs>
</svg>
