<svg width="20" height="21" viewBox="0 0 20 21" fill="none" xmlns="http://www.w3.org/2000/svg">
<path d="M13.2016 10.6931C14.4327 11.2743 15.4824 12.1795 16.2381 13.3118C16.9939 14.4442 17.4272 15.7608 17.4916 17.1206C17.5002 17.2452 17.4838 17.3702 17.4434 17.4884C17.403 17.6065 17.3394 17.7154 17.2563 17.8086C17.1733 17.9019 17.0725 17.9776 16.9598 18.0313C16.8471 18.085 16.7248 18.1157 16.6001 18.1215C16.4753 18.1274 16.3507 18.1082 16.2335 18.0652C16.1163 18.0222 16.0088 17.9563 15.9174 17.8712C15.8261 17.7861 15.7526 17.6836 15.7014 17.5698C15.6501 17.4559 15.6221 17.333 15.6191 17.2081C15.5509 15.7638 14.9292 14.4012 13.8829 13.4031C12.8367 12.4051 11.4463 11.8482 10.0003 11.8482C8.55438 11.8482 7.16396 12.4051 6.1177 13.4031C5.07145 14.4012 4.44972 15.7638 4.38157 17.2081C4.36474 17.4526 4.25284 17.6808 4.06985 17.8438C3.88686 18.0068 3.64732 18.0916 3.40253 18.0802C3.15774 18.0688 2.92716 17.9619 2.76016 17.7826C2.59317 17.6032 2.50304 17.3656 2.50907 17.1206C2.57336 15.7609 3.00648 14.4444 3.76201 13.3121C4.51753 12.1798 5.56697 11.2745 6.79782 10.6931C6.00909 10.0353 5.44215 9.15038 5.17414 8.15887C4.90612 7.16736 4.95004 6.11736 5.29991 5.15169C5.64977 4.18602 6.28861 3.35157 7.12953 2.76183C7.97044 2.1721 8.9726 1.85571 9.9997 1.85571C11.0268 1.85571 12.029 2.1721 12.8699 2.76183C13.7108 3.35157 14.3496 4.18602 14.6995 5.15169C15.0494 6.11736 15.0933 7.16736 14.8253 8.15887C14.5572 9.15038 13.9903 10.0353 13.2016 10.6931ZM13.1253 6.8519C13.1253 6.0231 12.7961 5.22824 12.21 4.64219C11.624 4.05614 10.8291 3.7269 10.0003 3.7269C9.17152 3.7269 8.37667 4.05614 7.79062 4.64219C7.20456 5.22824 6.87532 6.0231 6.87532 6.8519C6.87532 7.6807 7.20456 8.47555 7.79062 9.06161C8.37667 9.64766 9.17152 9.9769 10.0003 9.9769C10.8291 9.9769 11.624 9.64766 12.21 9.06161C12.7961 8.47555 13.1253 7.6807 13.1253 6.8519Z" fill="#18547F"/>
</svg>
