<svg width="20" height="21" viewBox="0 0 20 21" fill="none" xmlns="http://www.w3.org/2000/svg">
<path d="M9.99979 17.1017C9.41646 17.1017 8.92341 16.9003 8.52063 16.4976C8.11785 16.0948 7.91646 15.6017 7.91646 15.0184C7.91646 14.4351 8.11785 13.942 8.52063 13.5392C8.92341 13.1364 9.41646 12.9351 9.99979 12.9351C10.5831 12.9351 11.0762 13.1364 11.479 13.5392C11.8817 13.942 12.0831 14.4351 12.0831 15.0184C12.0831 15.6017 11.8817 16.0948 11.479 16.4976C11.0762 16.9003 10.5831 17.1017 9.99979 17.1017ZM9.99979 7.93506C11.0415 7.93506 12.0312 8.10173 12.969 8.43506C13.9067 8.76839 14.7573 9.22673 15.5206 9.81006C15.7984 10.0184 15.9409 10.2928 15.9481 10.6334C15.9554 10.9739 15.8337 11.2689 15.5831 11.5184C15.347 11.7545 15.0554 11.8762 14.7081 11.8834C14.3609 11.8906 14.0484 11.7967 13.7706 11.6017C13.2429 11.2406 12.6595 10.9559 12.0206 10.7476C11.3817 10.5392 10.7081 10.4351 9.99979 10.4351C9.29146 10.4351 8.61785 10.5392 7.97896 10.7476C7.34007 10.9559 6.75674 11.2406 6.22896 11.6017C5.95118 11.7962 5.63868 11.8864 5.29146 11.8726C4.94424 11.8587 4.65257 11.7337 4.41646 11.4976C4.18035 11.2476 4.06229 10.9526 4.06229 10.6126C4.06229 10.2726 4.20118 9.99811 4.47896 9.78923C5.24285 9.20589 6.09368 8.75089 7.03146 8.42423C7.96924 8.09756 8.95868 7.9345 9.99979 7.93506ZM9.99979 2.93506C11.7359 2.93506 13.3715 3.21978 14.9065 3.78923C16.4415 4.35867 17.8198 5.16423 19.0415 6.20589C19.3192 6.442 19.4651 6.73367 19.479 7.08089C19.4929 7.42811 19.3748 7.72673 19.1248 7.97673C18.8887 8.21284 18.597 8.3345 18.2498 8.34173C17.9026 8.34895 17.5901 8.24117 17.3123 8.01839C16.3123 7.19895 15.1909 6.56367 13.9481 6.11256C12.7054 5.66145 11.3892 5.43561 9.99979 5.43506C8.61035 5.4345 7.29452 5.66034 6.05229 6.11256C4.81007 6.56478 3.68841 7.20006 2.68729 8.01839C2.40952 8.24061 2.09702 8.34839 1.74979 8.34173C1.40257 8.33506 1.11091 8.21339 0.874794 7.97673C0.624794 7.72673 0.506739 7.42811 0.520628 7.08089C0.534517 6.73367 0.68035 6.442 0.958128 6.20589C2.18035 5.16423 3.55896 4.35867 5.09396 3.78923C6.62896 3.21978 8.26424 2.93506 9.99979 2.93506Z" fill="#18547F"/>
</svg>
