<svg width="16" height="16" viewBox="0 0 16 16" fill="none" xmlns="http://www.w3.org/2000/svg">
<g clip-path="url(#clip0_465_3728)">
<rect width="16" height="16" rx="8" fill="#C6F1FF"/>
<path d="M6.33747 6.37165C6.33747 4.79015 7.46672 3.42432 9.33703 3.42432C11.2426 3.42432 12.4425 4.79015 12.4425 6.37165C12.4425 7.98908 11.1721 9.35492 9.33703 9.35492C7.46672 9.35492 6.33747 7.98908 6.33747 6.37165ZM5.54346 27.7578C5.18291 27.7578 4.89062 27.46 4.89062 27.0928C4.89062 26.7399 5.16215 26.4516 5.50735 26.4213C6.85195 26.3034 7.04325 26.044 7.04325 24.8104V14.8542C7.04325 13.4884 6.76094 13.2368 6.2316 13.1649L5.65702 13.0762C5.3178 13.0239 5.06707 12.7269 5.06707 12.3774C5.06707 12.0251 5.32181 11.7266 5.66434 11.6776L11.6772 10.8163C11.78 10.8016 11.883 10.8421 11.9494 10.9233C11.9944 10.9782 12.019 11.0474 12.019 11.1189V24.8104C12.019 26.0448 12.2653 26.3037 13.6254 26.4216C13.9706 26.4515 14.2422 26.7399 14.2422 27.0928C14.2422 27.46 13.9499 27.7578 13.5894 27.7578H5.54346Z" fill="#222222"/>
</g>
<defs>
<clipPath id="clip0_465_3728">
<rect width="16" height="16" rx="8" fill="white"/>
</clipPath>
</defs>
</svg>
