<svg width="117" height="42" viewBox="0 0 117 42" fill="none" xmlns="http://www.w3.org/2000/svg">
<path d="M103.838 16.8592C103.343 16.8592 102.941 16.458 102.941 15.9631C102.941 15.4682 103.343 15.067 103.838 15.067H105.267L108.071 11.1457C108.33 10.7827 108.749 10.5674 109.195 10.5674C109.958 10.5674 110.577 11.1862 110.577 11.9496V15.067H113.48C113.975 15.067 114.376 15.4682 114.376 15.9631C114.376 16.458 113.975 16.8592 113.48 16.8592H110.577V27.0787C110.577 29.3666 111.546 30.3962 112.942 30.3962C113.448 30.3962 113.924 30.3373 114.332 30.2377C114.697 30.1489 115.1 30.3234 115.221 30.6789C115.316 30.9596 115.205 31.2701 114.947 31.4158C113.016 32.5054 110.975 33.0655 109.569 33.0655C107.515 33.0655 105.073 31.7308 105.073 28.4515V16.8592H103.838Z" fill="#222222"/>
<path d="M82.0187 33.0655C81.6217 33.0655 81.2998 32.7436 81.2998 32.3466C81.2998 31.965 81.5988 31.6533 81.9789 31.6206C83.4596 31.493 83.6703 31.2126 83.6703 29.8789V10.371C83.6703 8.89434 83.3983 8.58346 82.8154 8.46688L82.2168 8.37335C81.8455 8.31534 81.5718 7.99556 81.5718 7.61979C81.5718 7.23722 81.8553 6.91384 82.2345 6.86367L88.7433 6.00272C88.8543 5.98804 88.9666 6.01744 89.0562 6.08461C89.1639 6.16542 89.2273 6.29225 89.2273 6.42694V17.2493C91.5201 15.8115 93.1911 14.7234 95.3673 14.7234C99.2144 14.7234 101.002 16.9773 101.002 20.397V29.8789C101.002 31.2122 101.182 31.4929 102.655 31.6205C103.035 31.6534 103.334 31.965 103.334 32.3466C103.334 32.7436 103.012 33.0655 102.615 33.0655H94.2363C93.8307 33.0655 93.502 32.7367 93.502 32.3311C93.502 31.9538 93.7878 31.6379 94.1632 31.6004L94.2792 31.5888C95.0564 31.5111 95.445 31.3945 95.445 30.1898V20.9411C95.445 18.7649 94.4346 17.5213 92.5693 17.5213C91.0538 17.5213 90.0045 18.4151 89.5382 19.3478C89.2662 19.853 89.2273 20.669 89.2273 21.4851V30.1898C89.2273 31.3945 89.5771 31.5111 90.3543 31.5888L90.5071 31.6033C90.8831 31.6392 91.1703 31.955 91.1703 32.3328C91.1703 32.7374 90.8423 33.0655 90.4376 33.0655H82.0187Z" fill="#222222"/>
<path d="M62.3809 36.5627C62.3809 34.1145 65.0622 33.4538 66.5778 33.1041V33.0264C64.9845 32.6766 63.1969 31.1999 63.1969 29.6067C63.1969 28.13 64.7513 26.8087 67.1218 26.2258V26.1481C64.9068 25.7984 62.6529 23.9719 62.6529 20.9408C62.6529 18.104 64.5959 14.7232 71.1633 14.7232C73.1452 14.7232 75.1659 15.2283 76.3706 15.9278L80.7236 14.4646C80.8883 14.4093 81.0702 14.457 81.1865 14.5862C81.2852 14.6959 81.3217 14.848 81.2836 14.9905L80.8307 16.6827C80.6938 17.1942 80.2732 17.5802 79.7518 17.6727L78.197 17.9486C78.6633 18.5703 79.0908 19.6973 79.0908 20.7854C79.0908 25.1377 75.2048 26.6921 70.8913 26.6921C70.4638 26.6921 69.9198 26.731 69.2203 26.6533C68.7151 26.7699 67.7825 27.1585 67.7825 27.9745C67.7825 28.6352 68.4431 29.2181 70.2307 29.2181H73.6115C77.4587 29.2181 80.8395 30.5782 80.8395 34.9694C80.8395 37.6119 79.4794 39.5161 77.4587 40.5653C75.6322 41.5757 72.9897 41.8865 71.3965 41.8865C66.1892 41.8865 62.3809 40.099 62.3809 36.5627ZM67.2384 36.2129C67.2384 38.8166 69.4923 40.2155 71.9405 40.2155C74.3887 40.2155 76.4094 39.1663 76.4094 36.5627C76.4094 34.3476 74.5441 33.6481 71.4353 33.6481C69.842 33.6481 68.7151 33.8424 68.2099 34.1922C67.7047 34.5419 67.2384 35.2026 67.2384 36.2129ZM68.3654 20.8242C68.3654 23.3502 69.5312 25.0211 71.0856 25.0211C72.7566 25.0211 73.8835 23.389 73.8835 20.7854C73.8835 17.7154 72.5623 16.3942 71.1244 16.3942C69.6477 16.3942 68.3654 17.7154 68.3654 20.8242Z" fill="#222222"/>
<path d="M53.2368 9.94338C53.2368 8.23353 54.4804 6.75684 56.54 6.75684C58.6384 6.75684 59.9597 8.23353 59.9597 9.94338C59.9597 11.6921 58.5607 13.1688 56.54 13.1688C54.4804 13.1688 53.2368 11.6921 53.2368 9.94338ZM52.3625 33.0653C51.9654 33.0653 51.6436 32.7434 51.6436 32.3464C51.6436 31.9648 51.9426 31.6531 52.3227 31.6204C53.8034 31.4929 54.014 31.2125 54.014 29.8787V19.1144C54.014 17.6377 53.7032 17.3657 53.1202 17.288L52.4875 17.1921C52.114 17.1355 51.8379 16.8144 51.8379 16.4366C51.8379 16.0557 52.1184 15.733 52.4956 15.6799L59.1169 14.7488C59.2302 14.7329 59.3436 14.7766 59.4168 14.8645C59.4662 14.9239 59.4933 14.9987 59.4933 15.076V29.8787C59.4933 31.2134 59.7646 31.4932 61.2624 31.6207C61.6425 31.653 61.9416 31.9648 61.9416 32.3464C61.9416 32.7434 61.6197 33.0653 61.2226 33.0653H52.3625Z" fill="#222222"/>
<path d="M37.0503 27.1336C37.0151 26.6861 37.3688 26.3035 37.8177 26.3035C38.1545 26.3035 38.45 26.5235 38.5644 26.8404C39.5577 29.5918 41.4441 31.8217 43.7079 31.8217C45.3012 31.8217 46.2338 31.0056 46.2338 29.6067C46.2338 27.8579 44.4074 26.7699 42.5421 26.1092C39.3167 24.9046 37.1793 23.1947 37.1793 20.5133C37.1793 16.8216 39.9384 14.7231 44.4074 14.7231C45.6533 14.7231 46.9659 14.8729 48.149 15.2377C49.2801 15.5865 49.8867 16.7266 49.8867 17.9104V20.0982C49.8867 20.5206 49.5442 20.8631 49.1218 20.8631C48.7717 20.8631 48.4692 20.624 48.3644 20.29C47.6042 17.8692 46.1399 16.3941 44.4074 16.3941C42.8918 16.3941 42.0758 17.4045 42.0758 18.5315C42.0758 20.0082 43.6302 20.8631 45.7675 21.6403C49.1095 22.9227 51.1302 24.4382 51.1302 27.5859C51.1302 31.5497 48.0991 33.4927 43.6302 33.4927C42.0295 33.4927 40.0064 33.2111 38.5276 32.4836C37.7534 32.1027 37.3749 31.2656 37.3073 30.4054L37.0503 27.1336Z" fill="#222222"/>
<path d="M15.1017 33.0652C14.7047 33.0652 14.3828 32.7434 14.3828 32.3463C14.3828 31.9648 14.6818 31.6531 15.062 31.6203C16.5426 31.4928 16.7533 31.2124 16.7533 29.8787V19.1144C16.7533 17.6377 16.4424 17.3656 15.8595 17.2879L15.2285 17.1923C14.854 17.1356 14.5771 16.8136 14.5771 16.4348C14.5771 16.0544 14.8562 15.7316 15.2326 15.6767L20.1421 14.9602C21.0488 14.8279 21.8979 15.4362 22.0643 16.3373L22.2326 17.2491C24.6419 15.8112 26.3907 14.7231 28.528 14.7231C32.2974 14.7231 33.9684 16.9382 34.0073 20.3579V29.8787C34.0073 31.2128 34.2482 31.493 35.7375 31.6205C36.1176 31.653 36.4166 31.9648 36.4166 32.3463C36.4166 32.7434 36.0948 33.0652 35.6977 33.0652H27.3193C26.9137 33.0652 26.585 32.7364 26.585 32.3309C26.585 31.9536 26.8708 31.6377 27.2463 31.6001L27.3622 31.5885C28.1394 31.5108 28.528 31.3942 28.528 30.1896V20.8631C28.4503 18.6869 27.4787 17.5211 25.6135 17.5211C24.0979 17.5211 23.1264 18.4149 22.6601 19.3475C22.388 19.8527 22.2326 20.6688 22.2326 21.4848V30.1896C22.2326 31.3942 22.6989 31.5108 23.4761 31.5885L23.5189 31.5933C23.8928 31.6348 24.1756 31.9508 24.1756 32.327C24.1756 32.7347 23.8451 33.0652 23.4374 33.0652H15.1017Z" fill="#222222"/>
<path d="M2.76494 33.0654C2.36998 33.0654 2.0498 32.7452 2.0498 32.3502C2.0498 31.9677 2.35122 31.6549 2.73296 31.6306C4.70984 31.5047 4.96433 31.2168 4.96433 29.5291V11.3424C4.96433 9.64938 4.70821 9.33297 2.71395 9.2018C2.34286 9.17739 2.0498 8.87332 2.0498 8.50143C2.0498 8.11744 2.36109 7.80615 2.74508 7.80615H12.9738C13.3578 7.80615 13.669 8.11744 13.669 8.50143C13.669 8.87332 13.376 9.17733 13.005 9.20192C11.0242 9.33317 10.8322 9.6499 10.8322 11.3424V29.5291C10.8322 31.2162 11.023 31.5045 12.9858 31.6305C13.3676 31.655 13.669 31.9677 13.669 32.3502C13.669 32.7452 13.3489 33.0654 12.9539 33.0654H2.76494Z" fill="#222222"/>
</svg>
