<svg width="922" height="230" viewBox="0 0 922 230" fill="none" xmlns="http://www.w3.org/2000/svg">
<path fill-rule="evenodd" clip-rule="evenodd" d="M51.0801 146.511C64.0379 146.511 73.5399 154.113 73.54 161.024C73.54 168.626 71.294 171.218 67.1475 176.401C64.9014 179.165 60.5822 181.757 52.6348 184.694V185.04C62.1372 185.903 73.1951 191.605 73.1953 203.872C73.1953 218.73 58.1635 229.96 30.8652 229.96C18.7712 229.96 0.802938 224.95 0.802734 201.108C0.802734 176.229 17.9076 146.511 51.0801 146.511ZM41.2314 191.432C38.64 191.432 36.3941 192.469 31.9023 193.678L25.3369 195.406C25.3369 196.788 24.9912 198.689 24.9912 199.898C24.9912 212.51 27.4101 220.631 36.0488 220.631C45.3784 220.631 51.2529 214.929 51.2529 202.49C51.2529 195.06 47.4513 191.432 41.2314 191.432ZM47.9697 153.94C38.64 153.94 28.2741 169.145 25.5098 187.977C53.3258 180.375 54.708 170.354 54.708 161.715C54.708 157.05 52.4618 153.94 47.9697 153.94Z" fill="#FDD34B"/>
<path fill-rule="evenodd" clip-rule="evenodd" d="M125.429 107.637C145.298 107.637 160.502 122.15 160.502 143.228C160.502 157.914 159.811 181.93 147.371 205.254C138.56 221.495 127.33 229.96 106.942 229.96C83.4452 229.96 73.252 217.348 73.252 199.725C73.252 192.469 75.4976 179.338 82.9268 167.762C90.1832 156.359 101.759 146.511 122.665 146.511C136.487 146.511 140.806 153.595 143.052 159.988L143.916 159.815C145.471 153.077 145.816 147.72 145.816 140.809C145.816 126.296 135.968 115.066 124.22 115.066C117.827 115.066 106.597 115.757 98.1309 129.924L93.8115 126.296C103.314 110.229 115.926 107.637 125.429 107.637ZM124.047 153.94C116.445 153.94 110.398 161.716 105.388 172.946C100.205 184.867 96.9219 199.725 96.9219 210.61C96.9219 218.73 100.55 222.532 106.597 222.532C123.701 222.532 133.204 179.338 133.204 167.244C133.204 160.506 131.649 153.94 124.047 153.94Z" fill="#FDD34B"/>
<path fill-rule="evenodd" clip-rule="evenodd" d="M901.328 146.511C914.113 146.511 916.878 157.396 912.904 170.008L900.982 209.401C899.6 213.547 899.601 217.002 902.711 217.002C906.685 217.002 912.732 208.364 916.878 201.108L921.197 204.044C914.632 217.521 904.957 229.96 889.062 229.96C879.559 229.96 874.721 223.222 878.177 210.61L890.443 168.971C891.998 163.443 891.826 159.469 887.507 159.469C879.905 159.469 865.391 181.238 860.381 193.333C856.58 202.835 853.642 211.474 849.15 228.06L826.69 229.96L843.622 167.244C845.004 161.542 844.485 159.469 840.512 159.469C832.91 159.47 818.224 181.584 813.387 193.678C809.758 202.835 806.821 211.474 802.156 228.06L779.695 229.96L796.109 164.48C797.319 160.161 796.8 157.914 793.69 157.569L785.502 156.674C786.966 159.18 787.77 162.091 787.771 165.343C787.771 170.354 786.733 175.71 780.341 181.584C773.43 187.804 761.854 192.987 737.493 197.652V201.625C737.493 210.437 740.603 219.248 750.105 219.249C759.781 219.249 767.383 211.819 776.021 199.552L781.032 203.354C769.111 224.778 753.907 229.96 739.739 229.96C730.202 229.96 718.729 226.317 714.748 212.93C708.338 222.528 699.696 229.96 687.544 229.96C676.314 229.96 673.031 222.877 676.313 210.61L680.633 194.197H677.005C665.084 194.197 660.764 196.788 653.162 212.51C648.152 222.877 639.34 229.96 628.282 229.96C623.437 229.96 618.89 227.975 616.973 223.855C612.134 227.613 606.415 229.96 599.587 229.96C588.357 229.96 585.075 222.877 588.357 210.61L601.661 161.37C602.698 157.223 599.933 156.013 597.342 156.013H594.059C580.928 156.013 588.357 175.192 569.697 211.82C564.514 222.186 556.566 229.96 546.2 229.96C539.418 229.96 535.28 226.815 534.212 222.349C527.039 227.096 516.386 229.96 502.604 229.96C490.51 229.96 472.542 224.95 472.542 201.108C472.542 200.477 472.555 199.844 472.577 199.208C471.171 202.55 469.429 205.99 467.304 209.401C459.702 221.495 447.953 229.96 427.565 229.96C409.779 229.96 399.617 222.733 395.728 211.577C389.234 221.82 380.362 229.96 367.645 229.96C356.414 229.96 353.304 222.877 356.414 210.61L361.77 190.568H338.272L329.116 228.06L306.137 229.96L321.168 164.48C322.377 159.815 322.032 157.396 318.922 157.05L313.996 156.618C313.647 162.325 309.503 167.071 305.039 167.071C302.62 167.071 299.857 165.861 298.129 164.998C295.883 163.788 293.982 163.27 292.254 163.27C288.107 163.27 283.097 171.218 278.605 179.166L285.688 207.328C287.416 214.411 288.626 217.002 291.391 217.002C295.537 216.829 300.548 208.364 304.694 199.035L309.704 201.453C304.694 215.447 295.537 229.96 280.16 229.96C270.312 229.96 266.683 222.013 264.265 211.474L261.673 200.417H261.328C259.946 203.008 257.181 208.364 255.972 210.61C249.925 221.495 244.223 229.96 233.856 229.96C225.909 229.96 221.071 225.641 221.071 219.94C221.071 219.807 221.076 219.675 221.08 219.543C213.772 225.965 203.844 229.96 189.84 229.96C166.343 229.96 156.149 217.348 156.149 199.725C156.149 192.469 158.395 179.338 165.824 167.762C173.081 156.359 184.657 146.511 205.562 146.511C222.321 146.511 239.771 152.904 239.771 177.956C239.771 184.897 237.239 196.423 230.516 207.846C230.535 207.846 230.555 207.845 230.574 207.845C233.684 207.845 236.448 209.919 238.349 211.301C240.076 212.683 241.632 213.375 243.532 213.375C246.469 213.374 250.789 206.981 255.972 197.133C256.836 195.578 258.563 192.124 259.427 190.396L253.207 164.307C252.17 160.161 250.615 159.296 246.642 159.296L236.967 159.642L236.448 154.631L270.484 146.511L271.694 147.202L276.705 170.873H277.05C278.605 167.935 281.888 162.752 284.479 159.124C290.699 150.658 296.747 146.511 304.176 146.511C307.63 146.511 310.852 147.818 312.618 150.581L347.948 146.511L348.812 147.375L340 183.139H363.671L373 148.412L396.152 146.511L379.393 209.401C378.011 213.547 378.183 217.002 381.293 217.002C384.723 217.002 389.979 209.967 394.02 203.261C393.924 202.108 393.875 200.928 393.875 199.725C393.875 192.469 396.121 179.338 403.55 167.762C410.806 156.359 422.382 146.511 443.288 146.511C459.943 146.511 477.276 152.824 477.491 177.49C484.759 160.596 499.982 146.511 522.819 146.511C535.777 146.511 545.279 154.113 545.279 161.024C545.279 168.626 543.033 171.218 538.887 176.401C536.641 179.165 532.321 181.757 524.374 184.694V185.04C533.876 185.903 544.934 191.605 544.935 203.872C544.935 205.198 544.811 206.496 544.573 207.759C551.29 208.496 550.861 213.72 555.357 213.72C558.813 213.72 565.379 203.353 569.18 195.06C574.881 182.448 579.2 160.851 579.2 160.851C580.409 156.705 577.645 155.668 575.399 155.15L566.415 153.25L567.451 148.412H627.749L611.336 209.401C610.127 213.547 610.127 217.002 613.236 217.002C614.22 217.002 615.352 216.422 616.564 215.439C617.416 212.349 619.341 209.045 622.915 208.005C624.455 205.775 625.936 203.374 627.231 201.108L631.896 204.044C631.13 205.578 630.319 207.097 629.468 208.586C632.752 210.276 633.619 213.72 636.749 213.72C639.513 213.72 642.969 210.61 647.288 203.008C649.88 198.343 652.644 193.506 657.827 192.296V191.432C647.634 190.05 636.749 182.966 636.749 172.427C636.749 156.705 655.063 148.412 678.905 148.412H715.533L699.12 209.401C697.911 213.547 698.083 217.002 701.193 217.002C704.508 217.002 709.398 210.434 713.345 203.941C713.319 203.299 713.305 202.643 713.305 201.971C713.305 189.532 717.624 176.055 726.436 164.998C735.247 153.94 747.687 146.511 763.755 146.511C772.881 146.511 780.424 149.676 784.497 155.158L785.397 151.176L822.371 146.511L823.234 147.547L812.868 182.102H813.732C823.753 162.924 838.957 146.511 853.47 146.511C866.255 146.511 867.465 156.705 863.318 170.181L859.862 181.929L860.727 182.102C870.747 162.752 885.26 146.511 901.328 146.511ZM206.944 153.94C199.342 153.94 193.296 161.716 188.285 172.946C183.102 184.867 179.819 199.725 179.819 210.61C179.819 218.73 183.447 222.532 189.494 222.532C206.599 222.532 216.102 179.338 216.102 167.244C216.102 160.506 214.546 153.94 206.944 153.94ZM444.67 153.94C437.068 153.94 431.021 161.716 426.011 172.946C420.828 184.867 417.545 199.725 417.545 210.61C417.545 218.73 421.173 222.532 427.22 222.532C444.324 222.532 453.827 179.338 453.827 167.244C453.827 160.506 452.272 153.94 444.67 153.94ZM512.971 191.432C510.379 191.432 508.133 192.469 503.642 193.678L497.076 195.406C497.076 196.788 496.73 198.689 496.73 199.898C496.73 212.51 499.149 220.631 507.788 220.631C517.118 220.631 522.992 214.929 522.992 202.49C522.992 195.06 519.191 191.432 512.971 191.432ZM760.99 153.94C751.488 153.94 740.258 171.736 738.012 190.396C756.844 186.595 767.037 173.809 767.037 161.197C767.037 156.705 764.964 153.94 760.99 153.94ZM519.709 153.94C510.379 153.94 500.013 169.145 497.249 187.977C525.065 180.375 526.447 170.354 526.447 161.715C526.447 157.05 524.201 153.94 519.709 153.94ZM684.606 156.013C667.675 156.013 660.937 160.333 660.937 173.982C660.937 181.757 665.602 186.767 677.523 186.767H682.533L689.444 161.37C690.481 157.223 687.717 156.013 685.125 156.013H684.606Z" fill="#FDD34B"/>
<path d="M80.0928 70.4136H80.5947L91.6494 28.3306H107.353L86.625 93.5278C81.9771 108.1 76.3242 115.637 65.0186 115.637C60.8731 115.637 57.355 114.129 56.8525 113.752V100.562C57.7319 101.064 59.9934 101.819 62.5059 101.819C66.6513 101.819 69.0377 99.1805 70.2939 95.5376L72.3047 89.2563L52.707 28.3306H68.6611L80.0928 70.4136Z" fill="#FDD34B"/>
<path fill-rule="evenodd" clip-rule="evenodd" d="M406.384 52.1987V28.3306H420.202V52.1987L436.533 28.3306H453.492L434.648 53.4546L449.743 80.3413V75.438H453.512C459.165 66.6446 461.049 55.967 461.049 45.9175V28.3306H501.876V75.438H508.785V103.075H493.71V89.2563H464.817V103.075H449.743V89.2563H438.418L426.232 64.7603L420.202 72.5493V89.2563H406.384V72.5493L400.354 64.7603L388.169 89.2563H371.839L391.938 53.4546L373.095 28.3306H390.054L406.384 52.1987ZM475.495 47.1733C475.495 64.7599 469.842 74.1815 469.214 75.438H487.43V42.1489H475.495V47.1733Z" fill="#FDD34B"/>
<path d="M132.452 27.0747C144.55 27.0747 151.362 35.5299 153.861 38.8687V28.3306H200.342V42.1489H184.639V89.2563H169.564V42.1489H153.861V40.1021L144.386 47.8013C143.129 45.9166 139.361 40.8921 133.08 40.8921C126.171 40.8922 120.519 47.1739 120.519 58.731C120.519 70.4135 126.171 76.6948 133.08 76.6948C139.989 76.6948 143.758 71.67 145.015 69.7856L155.063 77.9507C153.556 80.4633 145.642 90.5132 132.452 90.5132C117.378 90.5132 105.443 77.3227 105.443 58.731C105.443 40.2647 117.378 27.0747 132.452 27.0747Z" fill="#FDD34B"/>
<path fill-rule="evenodd" clip-rule="evenodd" d="M347.961 27.0747C361.402 27.0748 369.944 35.7425 369.944 48.4302V89.2563H354.87V82.3472H354.242C351.102 87.372 345.448 90.5132 339.795 90.5132C329.746 90.513 322.837 82.9756 322.837 72.9263C322.837 63.5047 328.489 56.5951 341.68 53.4546L354.87 50.314V49.0581C354.87 44.0333 351.729 40.2642 346.704 40.2642C340.423 40.2643 336.027 44.6611 334.771 46.5454L325.977 38.3804C327.233 36.4961 334.143 27.0747 347.961 27.0747ZM346.076 62.2485C341.051 63.5048 337.283 66.6449 337.283 71.0415C337.283 75.4382 339.796 77.9507 344.192 77.9507C350.473 77.9505 354.87 72.2975 354.87 64.1323V60.1128L346.076 62.2485Z" fill="#FDD34B"/>
<path d="M792.095 27.0747C805.285 27.0749 812.822 35.2395 812.822 44.0327C812.822 50.9418 809.053 55.9667 803.4 57.8511C804.531 58.1024 814.078 61.2437 814.078 72.9263C814.078 81.7195 807.169 90.513 792.095 90.5132C777.021 90.5132 770.488 80.9664 769.482 79.4585L777.396 71.6694C777.648 72.2975 782.673 77.9507 790.21 77.9507C796.491 77.9507 799.004 74.8101 799.004 71.0415C799.004 66.6448 796.491 62.8765 789.582 62.8765H784.558V52.8267H788.954C795.235 52.8266 797.747 49.686 797.747 45.9175C797.747 42.777 794.607 39.6362 790.21 39.6362C784.557 39.6363 780.035 42.9027 779.532 43.5308L771.618 35.7417C772.498 34.7358 779.534 27.0747 792.095 27.0747Z" fill="#FDD34B"/>
<path d="M51.4512 89.2563H36.377V42.1489H17.5332V89.2563H2.45898V28.3306H51.4512V89.2563Z" fill="#FDD34B"/>
<path fill-rule="evenodd" clip-rule="evenodd" d="M219.233 47.1733H227.399C240.589 47.1735 248.755 55.3391 248.755 68.2778C248.755 81.091 240.589 89.2561 227.399 89.2563H204.159V28.3306H219.233V47.1733ZM219.233 77.9507H225.515C230.539 77.9507 233.68 74.182 233.68 68.2778C233.68 62.2481 230.539 58.479 225.515 58.479H219.233V77.9507Z" fill="#FDD34B"/>
<path d="M288.924 52.8267L307.767 28.3306H324.726L304.626 53.4546L325.981 89.2563H309.651L295.456 65.3882L288.924 73.5542V89.2563H273.85V28.3306H288.924V52.8267Z" fill="#FDD34B"/>
<path fill-rule="evenodd" clip-rule="evenodd" d="M527.672 47.1733H535.209C548.399 47.1733 556.565 55.3389 556.565 68.2778C556.565 81.0912 548.399 89.2563 535.209 89.2563H512.598V28.3306H527.672V47.1733ZM527.672 77.9507H533.325C538.35 77.9506 541.49 74.182 541.49 68.2778C541.49 62.2481 538.35 58.4791 533.325 58.479H527.672V77.9507Z" fill="#FDD34B"/>
<path d="M577.921 89.2563H562.846V28.3306H577.921V89.2563Z" fill="#FDD34B"/>
<path d="M601.773 62.6245H602.025L624.135 28.3306H636.319V89.2563H621.245V54.9624H620.994L598.885 89.2563H586.699V28.3306H601.773V62.6245Z" fill="#FDD34B"/>
<path fill-rule="evenodd" clip-rule="evenodd" d="M688.462 28.3306C702.908 28.3306 709.817 35.2401 709.817 44.6616C709.817 53.4251 701.083 57.1978 701.024 57.2231C701.084 57.2407 711.702 60.3936 711.702 71.0415C711.702 81.7193 704.792 89.2563 689.718 89.2563H665.223V28.3306H688.462ZM680.297 79.2065H687.834C692.859 79.2065 696.627 75.4383 696.627 70.4136C696.627 65.3888 693.487 62.2486 687.834 62.2485H680.297V79.2065ZM680.297 52.8267H687.206C692.231 52.8266 694.743 50.3141 694.743 45.9175C694.743 41.5208 692.231 38.3805 687.206 38.3804H680.297V52.8267Z" fill="#FDD34B"/>
<path d="M732.439 62.6245H732.69L754.8 28.3306H766.985V89.2563H751.91V54.9624H751.659L729.55 89.2563H717.364V28.3306H732.439V62.6245Z" fill="#FDD34B"/>
<path d="M834.762 62.6245H835.013L857.122 28.3306H869.307V89.2563H854.232V54.9624H853.981L831.872 89.2563H819.687V28.3306H834.762V62.6245Z" fill="#FDD34B"/>
<path d="M919.541 42.1489H903.838V89.2563H888.764V42.1489H873.061V28.3306H919.541V42.1489Z" fill="#FDD34B"/>
<path d="M605.542 0.693848C605.542 6.3467 608.055 9.48769 611.823 9.48779C615.592 9.48779 618.104 6.34679 618.104 0.693848H630.038C630.038 12.6278 621.873 19.5366 611.823 19.5366C601.774 19.5365 593.608 12.6278 593.608 0.693848H605.542Z" fill="#FDD34B"/>
</svg>
