<svg width="75" height="76" viewBox="0 0 75 76" fill="none" xmlns="http://www.w3.org/2000/svg">
<g filter="url(#filter0_g_131_8228)">
<path d="M27.5456 37.3253C30.6884 29.8193 43.7945 38.4448 43.7945 38.4448C43.4972 38.192 44.6299 27.419 51.5635 27.5681C57.0607 27.6863 54.4049 40.2956 55.2617 40.9834C55.7442 41.3707 65.8659 36.5063 68.8147 44.9903C70.4957 50.9443 58.3547 50.9003 58.0447 51.0867C57.5797 51.3663 61.8878 60.4259 56.9775 63.6319C49.8348 67.8637 47.8322 56.5312 47.8322 56.5312C47.8322 56.5312 44.3793 61.1445 41.0603 59.2738C35.8377 56.3301 42.0547 48.8076 41.3666 48.8324C40.7742 48.8537 23.9904 45.8165 27.5456 37.3253Z" fill="#222222"/>
<path d="M17.0132 62.3094C7.33759 55.4577 23.7633 39.5595 23.7633 39.5595C23.3094 39.902 8.35019 34.8715 10.7632 25.0595C12.6764 17.2802 29.7632 25.0594 31.0132 24.0594C31.7171 23.4963 28.0132 7.55938 41.0133 6.0595C50.0132 5.55936 46.0965 22.8094 46.2632 23.3094C46.5132 24.0594 60.7632 20.8094 63.7632 28.8094C67.5132 40.3094 50.7632 39.5595 50.7632 39.5595C50.7632 39.5595 56.2269 45.9339 52.5133 50.0595C46.6696 56.5513 37.9464 45.3231 37.7632 46.3094C37.6055 47.1584 27.9588 70.0603 17.0132 62.3094Z" fill="#99D6E9"/>
<path d="M15.3709 9.84501C16.914 8.12672 19.6213 11.6621 19.6213 11.6621C19.5652 11.5666 20.8746 8.78504 22.719 9.47233C24.1812 10.0172 22.2922 13.1487 22.4576 13.413C22.5508 13.5619 25.7177 13.2032 25.7159 15.7523C25.6105 17.505 22.3607 16.3597 22.2602 16.3807C22.1095 16.4122 22.4183 19.2425 20.803 19.6433C18.4936 20.1106 19.0149 16.8864 19.0149 16.8864C19.0149 16.8864 17.6587 17.8004 16.9439 16.9892C15.819 15.7127 18.1875 14.277 18.0008 14.2194C17.84 14.1698 13.6253 11.7888 15.3709 9.84501Z" fill="#222222"/>
<path d="M2.5 38.0488C6.5 49.2988 14 43.7051 12.25 41.2988C10.5 38.8926 4.25 44.0488 4 51.5489" stroke="#222222" stroke-width="1.5" stroke-linecap="round"/>
<path d="M64.6631 19.0889C57.8877 9.25751 52.091 16.6018 54.4041 18.4731C56.7173 20.3445 61.4198 13.7463 59.7201 6.43707" stroke="#222222" stroke-width="1.5" stroke-linecap="round"/>
</g>
<defs>
<filter id="filter0_g_131_8228" x="1.5" y="5.4369" width="67.7246" height="59.3913" filterUnits="userSpaceOnUse" color-interpolation-filters="sRGB">
<feFlood flood-opacity="0" result="BackgroundImageFix"/>
<feBlend mode="normal" in="SourceGraphic" in2="BackgroundImageFix" result="shape"/>
<feTurbulence type="fractalNoise" baseFrequency="4 4" numOctaves="3" seed="1238" />
<feDisplacementMap in="shape" scale="0.5" xChannelSelector="R" yChannelSelector="G" result="displacedImage" width="100%" height="100%" />
<feMerge result="effect1_texture_131_8228">
<feMergeNode in="displacedImage"/>
</feMerge>
</filter>
</defs>
</svg>
