<svg width="75" height="76" viewBox="0 0 75 76" fill="none" xmlns="http://www.w3.org/2000/svg">
<g filter="url(#filter0_g_131_8246)">
<path d="M36.2511 8.80356C36.1469 7.97019 36.4144 7.12771 37.251 7.05358C38.1476 6.97413 38.7037 7.9047 38.751 8.80357C39.001 13.5536 40.3559 22.8336 46.001 29.0536C50.7297 34.2639 56.501 38.0536 61.751 37.8036C62.5126 37.7673 63.251 38.2911 63.251 39.0536C63.251 39.8161 62.51 40.2301 61.751 40.3036C54.001 41.0536 50.9276 43.0536 47.251 47.5536C42.4535 53.4255 42.251 57.8036 42.001 67.0536C41.9841 67.6785 41.6237 68.1094 41.001 68.0536C40.2998 67.9907 39.8064 67.2554 39.751 66.5536C39.001 57.0536 36.0239 53.6158 29.251 48.5536C23.8591 44.5235 17.751 43.8035 12.7509 42.3036C12.2834 42.1633 11.5262 41.7911 11.5009 41.3036C11.4578 40.4705 12.9174 40.5813 13.7511 40.5536C21.2511 40.3036 26.0011 35.5536 30.251 29.5536C35.1113 22.6918 36.7512 12.8035 36.2511 8.80356Z" fill="#FFE146"/>
</g>
<g filter="url(#filter1_g_131_8246)">
<path d="M51.5 51.5488L56.25 54.2912M53 49.5488L61.5 52.2988" stroke="#222222" stroke-width="1.5" stroke-linecap="round"/>
</g>
<g filter="url(#filter2_g_131_8246)">
<path d="M58.7479 20.5488C58.4979 19.2988 57.2479 19.5488 56.9979 20.0488C56.7479 20.5488 56.4008 22.355 54.9979 23.5488C53.7671 24.5962 53.5001 24.7989 51.75 25.2988C51.1867 25.4597 51.2117 26.5681 51.7502 26.7988C53.5004 27.5488 53.8925 27.4961 55.4979 28.2988C56.4979 28.7988 56.2479 29.5488 56.2479 30.7988C56.2479 31.5029 56.2967 32.486 56.9979 32.5488C57.6206 32.6046 58.1595 32.1677 58.2479 31.5488C58.4979 29.7988 58.9357 29.5167 59.9979 28.2988C61.066 27.0743 63.5818 27.1391 63.2479 25.5488C63.131 24.9917 62.3002 24.9369 61.7479 24.7988C60.748 24.5488 60.2608 24.8857 59.4979 23.7988C58.8783 22.9161 58.9979 21.7988 58.7479 20.5488Z" fill="#222222"/>
<path d="M57.1238 19.5771C57.355 19.4221 57.714 19.3585 57.9817 19.4167C58.0648 19.4346 58.02 19.4396 58.076 19.4552C58.1845 19.4878 58.2872 19.5236 58.3807 19.588C58.4114 19.6097 58.3612 19.6027 58.3926 19.6249C58.5631 19.7477 58.6939 19.9014 58.7806 20.0825C58.8478 20.2234 58.8894 20.3695 58.9158 20.5152C59.0494 21.2423 59.0563 21.9674 59.1892 22.668C59.241 22.9412 59.3244 23.2702 59.4697 23.5126C59.4864 23.5409 59.493 23.5148 59.4974 23.5195C59.5657 23.592 59.5174 23.5824 59.547 23.6396C59.5628 23.6692 59.5798 23.6988 59.5981 23.7284C59.7213 23.9271 59.8783 24.1158 60.0442 24.2428C60.1266 24.3038 60.0675 24.2127 60.1366 24.2892C60.1415 24.2944 60.1093 24.2956 60.1308 24.3133C60.1791 24.3545 60.2848 24.4093 60.3286 24.4291C60.4132 24.4688 60.4284 24.4734 60.5142 24.4986C60.6319 24.5322 60.7804 24.5628 60.9198 24.573C60.9497 24.5752 60.9125 24.5511 60.9602 24.5526C61.0078 24.5542 61.1346 24.5686 61.1779 24.5784C61.2203 24.5879 61.2003 24.6015 61.2075 24.606C61.2665 24.6428 61.421 24.6219 61.4402 24.6245C61.5576 24.6371 61.6689 24.6584 61.7761 24.6862C61.9768 24.7377 62.1776 24.7818 62.3922 24.8328C62.6345 24.8918 62.9103 24.9608 63.1189 25.1363C63.2404 25.2381 63.3236 25.3811 63.35 25.5274C63.3759 25.6662 63.3867 25.8016 63.3714 25.9529C63.3679 25.9837 63.396 25.9495 63.391 25.989C63.3401 26.4211 62.9957 26.7326 62.6679 26.9104C62.6343 26.929 62.6656 26.8857 62.6316 26.903C62.4225 27.012 62.0791 27.1222 61.991 27.2591C61.8478 27.3184 61.6748 27.3881 61.5422 27.4263C61.4566 27.4511 61.5259 27.3959 61.4306 27.4485C61.4092 27.4604 61.4462 27.4655 61.4135 27.482C61.2756 27.5513 61.1209 27.6164 60.9914 27.6946C60.9651 27.7106 60.9807 27.7225 60.9745 27.7293C60.9222 27.7852 60.7965 27.8066 60.7722 27.8175C60.5874 27.8988 60.4696 27.9888 60.3262 28.1049C60.2932 28.1321 60.3471 28.1181 60.3163 28.1449C60.2346 28.2162 60.156 28.2928 60.0835 28.3735C60.0091 28.4566 59.9353 28.5354 59.861 28.6112C59.8269 28.646 59.8415 28.5991 59.8244 28.615C59.7506 28.6838 59.7628 28.7275 59.6924 28.7939C59.6772 28.8083 59.6721 28.788 59.6682 28.7895C59.6063 28.8139 59.6051 28.8789 59.5952 28.8914C59.4782 29.0422 59.3644 29.1037 59.2517 29.2482C59.2384 29.2654 59.2864 29.2418 59.2483 29.2892C58.9902 29.6058 58.7553 29.9589 58.6038 30.3309C58.5798 30.3886 58.5796 30.3412 58.5764 30.3441C58.5241 30.3951 58.552 30.4472 58.547 30.4675C58.5082 30.6236 58.4367 30.761 58.4613 30.8799C58.404 31.1023 58.364 31.3314 58.3311 31.5607C58.2712 32.0467 57.8864 32.4864 57.4084 32.5715C57.3994 32.5732 57.4099 32.5489 57.3923 32.5524C57.1787 32.5837 57.2255 32.6044 57.0765 32.6477C57.0582 32.6521 57.0229 32.6422 56.9908 32.6286C56.9534 32.6138 56.9238 32.594 56.9186 32.5911C56.8849 32.5711 56.9285 32.5481 56.9171 32.5432C56.8314 32.5003 56.8121 32.6102 56.6795 32.5399C56.6757 32.5374 56.7017 32.5308 56.6923 32.523C56.6635 32.4991 56.6291 32.4837 56.6056 32.4554C56.5533 32.3882 56.5717 32.3389 56.4821 32.2596C56.4718 32.2486 56.4307 32.3026 56.3743 32.1912C56.3486 32.1479 56.2744 31.9469 56.2666 31.8883C56.2556 31.8302 56.2839 31.8649 56.2836 31.8605C56.2723 31.7031 56.2966 31.7582 56.3184 31.6767C56.3419 31.5959 56.2592 31.6306 56.2447 31.6006C56.23 31.5705 56.2372 31.4555 56.2421 31.4275C56.2466 31.3993 56.2618 31.4324 56.2635 31.4077C56.2765 31.2443 56.2144 31.34 56.1966 31.2872C56.1557 31.1617 56.218 31.06 56.2228 30.9451C56.2241 30.914 56.2096 30.9396 56.2079 30.9117C56.2055 30.8696 56.2072 30.8334 56.209 30.7988C56.212 30.7414 56.2157 30.6877 56.2056 30.6097C56.2029 30.5896 56.1661 30.4869 56.1969 30.422C56.2013 30.4129 56.2167 30.4397 56.2218 30.393C56.2294 30.3235 56.2379 30.1973 56.2353 30.1223C56.2334 30.0667 56.2044 30.129 56.2153 30.06C56.2201 30.0294 56.2336 30.0872 56.2413 30.0291C56.2492 29.9715 56.2527 29.8231 56.2524 29.7675C56.2523 29.7109 56.2318 29.7418 56.2305 29.7372C56.2231 29.7098 56.2122 29.603 56.2117 29.5941C56.2142 29.1264 56.0765 28.6697 55.6611 28.4393C55.6298 28.4206 55.6391 28.4517 55.6342 28.449C55.5262 28.3946 55.6373 28.3941 55.5708 28.3347C55.5625 28.3702 55.5358 28.3567 55.4816 28.3315C55.4684 28.3254 55.4537 28.3186 55.4378 28.3116C55.3982 28.2946 55.4118 28.3201 55.4075 28.3198C55.3394 28.3145 55.3158 28.2664 55.3077 28.255C55.2802 28.214 55.2267 28.2206 55.2087 28.1936C55.1902 28.1665 55.2606 28.1732 55.1827 28.1363C55.1543 28.1399 55.1943 28.2039 55.1328 28.1818C54.9047 28.0988 54.5019 27.888 54.3208 27.8146C54.1406 27.7397 54.081 27.7213 53.976 27.6765C53.7864 27.5968 53.8468 27.6508 53.7222 27.6212C53.597 27.5918 53.6801 27.5426 53.6679 27.5215C53.6561 27.5006 53.6321 27.5095 53.6137 27.4939C53.5953 27.4782 53.6449 27.484 53.596 27.4635C53.5473 27.4432 53.4018 27.4227 53.3784 27.4322C53.3296 27.4525 53.3792 27.509 53.251 27.4506C53.2438 27.4472 53.2746 27.4374 53.2464 27.4255C53.0206 27.3309 52.7808 27.2433 52.5587 27.1437C52.5282 27.13 52.5639 27.1206 52.5461 27.1123C52.3616 27.026 52.4156 27.0859 52.2972 27.0827C52.3406 27.0418 52.2945 26.9885 52.153 26.9304C52.0668 26.8949 52.0722 26.9225 52.0112 26.9153C51.993 26.9131 51.9382 26.8727 51.9225 26.8781C51.8713 26.8958 51.9143 26.9582 51.7735 26.8809C51.7673 26.8774 51.7958 26.868 51.7738 26.8573C51.7592 26.8503 51.7457 26.8441 51.7331 26.8388C51.6206 26.7839 51.5679 26.789 51.4566 26.6607C51.3573 26.5463 51.2944 26.2949 51.2877 26.1385C51.3467 26.1343 51.3237 25.9966 51.2886 25.9329C51.2967 25.8313 51.3166 25.7208 51.3587 25.6297C51.3733 25.5986 51.3811 25.6262 51.3845 25.6229C51.4361 25.5758 51.4227 25.5208 51.4337 25.5003C51.5013 25.3764 51.6161 25.2951 51.7396 25.2623C51.8247 25.2389 51.9041 25.214 51.9895 25.1756C51.9967 25.1724 51.9959 25.1288 52.0606 25.1416C52.0648 25.1426 52.0002 25.1818 52.1003 25.1535C52.197 25.1263 52.3908 25.0905 52.5191 25.0275C52.5497 25.0126 52.6223 24.9523 52.6952 24.9551C52.7053 24.9554 52.6995 24.9703 52.7147 24.9721C52.7635 24.9776 52.7707 24.9299 52.8309 24.9465C52.8919 24.9625 53.0014 24.9514 53.1256 24.8724C53.1292 24.8701 53.1482 24.8256 53.1895 24.8082C53.2556 24.7804 53.3516 24.7433 53.4184 24.7092C53.4506 24.6927 53.4205 24.6845 53.4259 24.6813C53.6343 24.5606 53.7898 24.4869 54.0063 24.3436C54.0469 24.3168 54.1382 24.2138 54.225 24.1747C54.3193 24.1321 54.3023 24.2779 54.4695 24.1122C54.5374 24.0446 54.5448 23.8695 54.7175 23.8126C54.8148 23.722 54.9096 23.6434 55.0093 23.5622C55.1565 23.4421 55.2977 23.3151 55.4203 23.1598C55.4296 23.1481 55.4337 23.0892 55.4566 23.0638C55.491 23.0257 55.5222 23.0152 55.5466 22.9878C55.6493 22.8728 55.7229 22.7519 55.8098 22.6319C55.8426 22.5862 55.8458 22.6127 55.8845 22.5574C55.923 22.5015 55.9276 22.4524 55.9856 22.3808C56.0289 22.3273 56.1055 22.2919 56.1559 22.215C56.1169 22.1889 56.1498 22.1345 56.1914 22.0308C56.1994 22.0106 56.1742 22.0233 56.1773 22.0134C56.1893 21.9731 56.2188 21.9457 56.2283 21.907C56.2307 21.8975 56.2167 21.8899 56.2178 21.8817C56.227 21.8123 56.306 21.7311 56.3197 21.7165C56.3716 21.6623 56.3669 21.6225 56.398 21.5765C56.4288 21.5304 56.4061 21.6098 56.4373 21.5538C56.5025 21.4364 56.5656 21.2767 56.615 21.1507C56.6347 21.1002 56.6015 21.1271 56.6038 21.1197C56.6386 21.0144 56.699 20.9148 56.6796 20.8432C56.8091 20.8066 56.6925 20.7762 56.7654 20.6335C56.7714 20.6217 56.8254 20.6243 56.8169 20.6719C56.8084 20.7196 56.769 20.7832 56.7573 20.8511C56.7547 20.8669 56.7696 20.9687 56.7677 20.9821C56.7558 21.0809 56.6776 21.0677 56.672 21.0708C56.6088 21.1084 56.617 21.2315 56.6094 21.2599C56.5748 21.3912 56.5201 21.492 56.4848 21.5999C56.4618 21.6698 56.5043 21.6987 56.4785 21.7503C56.3902 21.9244 56.2974 21.9507 56.2646 22.1406C56.2571 22.181 56.3252 22.1745 56.2172 22.2759C56.2106 22.2821 56.1232 22.3528 56.1133 22.4167C56.112 22.4248 56.1259 22.4331 56.1218 22.4423C56.0937 22.5044 56.0587 22.5354 56.0235 22.6C55.9878 22.6652 55.9454 22.7429 55.8912 22.8081C55.8589 22.8471 55.7955 22.881 55.7749 22.8957C55.7171 22.9362 55.6982 23.0153 55.6514 23.0314C55.6045 23.0473 55.6268 22.9595 55.5436 23.0327C55.573 23.0629 55.5997 23.0981 55.6275 23.1307C55.4658 23.3172 55.285 23.4804 55.0985 23.6427C55.0838 23.6555 55.0939 23.6589 55.097 23.6653C55.0988 23.669 55.0983 23.6736 55.0894 23.6816C54.9886 23.7721 54.8892 23.8355 54.7859 23.9306C54.7051 24.0051 54.6303 24.0984 54.5443 24.176C54.4601 24.1826 54.3382 24.3011 54.2357 24.3725C54.2001 24.3973 54.1944 24.3855 54.1671 24.4005C54.0641 24.4566 54.1327 24.459 54.1106 24.4832C54.0135 24.5865 53.9495 24.5147 53.8146 24.6035C53.8078 24.6082 53.744 24.707 53.7325 24.7171C53.6622 24.7818 53.7103 24.7095 53.6579 24.735C53.562 24.7807 53.4913 24.8042 53.3863 24.8711C53.3558 24.8907 53.2895 24.9564 53.2153 24.9612C53.2055 24.9619 53.2036 24.9443 53.1963 24.9463C53.0672 24.9828 53.0836 25.0326 53.0184 25.0775C52.9533 25.1223 52.8295 25.1278 52.8037 25.1256C52.7352 25.1207 52.8451 25.0985 52.8469 25.0948C52.8729 25.0514 52.7956 25.0854 52.7325 25.1043C52.7069 25.058 52.6221 25.0902 52.6682 25.1236C52.6735 25.1272 52.7197 25.1063 52.7325 25.1043C52.6961 25.1712 52.6022 25.21 52.4823 25.1981C52.427 25.1921 52.4647 25.1532 52.3191 25.2086C52.2529 25.2336 52.2891 25.2601 52.2318 25.2878C52.1044 25.3494 51.9234 25.3693 51.7827 25.4132C51.7804 25.4139 51.7781 25.4147 51.7759 25.4155C51.739 25.43 51.7813 25.436 51.758 25.4468C51.6995 25.476 51.642 25.5034 51.6028 25.5681C51.5995 25.5738 51.6253 25.5732 51.6127 25.5913C51.5203 25.7324 51.4744 25.9145 51.4942 26.1204C51.5013 26.2217 51.5643 26.3899 51.6153 26.4689C51.6613 26.5494 51.7248 26.628 51.8054 26.6699C51.8937 26.714 51.9738 26.752 52.0472 26.7791C52.1531 26.818 52.1395 26.7899 52.1901 26.7955C52.2866 26.8058 52.4237 26.9129 52.4432 26.9285C52.4434 26.929 52.3502 26.8972 52.3947 26.9262C52.4156 26.9582 52.4421 26.9282 52.4432 26.9285C52.4553 26.9388 52.6369 27.0143 52.6746 27.0241C52.6955 27.0297 52.6912 27.0072 52.7019 27.0105C52.9533 27.0872 53.2032 27.1704 53.4534 27.2667C53.4577 27.2686 53.4438 27.2869 53.4541 27.2911C53.5978 27.3512 53.7008 27.3584 53.8279 27.3865C53.955 27.4145 54.0501 27.4548 54.1091 27.5168C54.2021 27.5462 54.3279 27.6125 54.3987 27.6518C54.4701 27.6913 54.496 27.6562 54.5031 27.6581C54.7193 27.7179 54.8286 27.7921 55.0353 27.8908C55.1344 27.938 55.331 28.0247 55.4404 28.0736C55.4943 28.0974 55.5332 28.1204 55.576 28.1428C55.6013 28.1561 55.6271 28.1692 55.6566 28.1827C55.6677 28.1879 55.666 28.1653 55.6696 28.1665C55.7723 28.1984 55.7051 28.214 55.7194 28.2317C55.7691 28.2975 55.8011 28.3338 55.9136 28.4052C55.9393 28.4212 56.0532 28.4328 56.0979 28.4755C56.1551 28.5307 56.1173 28.5231 56.1734 28.5838C56.178 28.5892 56.1891 28.5782 56.2188 28.6208C56.358 28.8189 56.4254 29.0754 56.4526 29.2993C56.4564 29.3303 56.475 29.2878 56.4807 29.3326C56.5063 29.5437 56.5013 29.7628 56.4848 29.9532C56.4806 29.9996 56.4652 29.9699 56.46 29.9798C56.4286 30.0411 56.468 30.1297 56.4682 30.1445C56.4733 30.386 56.4512 30.5829 56.4474 30.7988C56.4459 30.8905 56.4471 30.9849 56.4557 31.0856C56.457 31.1045 56.5086 31.2429 56.4745 31.3074C56.4722 31.3116 56.4367 31.3771 56.4697 31.4286C56.4718 31.4317 56.4883 31.3919 56.4932 31.458C56.4983 31.5245 56.5264 31.6262 56.5224 31.7168C56.521 31.7447 56.4963 31.8213 56.5512 31.89C56.5547 31.8969 56.6617 31.9829 56.6349 32.0377C56.6308 32.0462 56.5783 32.0671 56.6471 32.1309C56.6603 32.142 56.6544 32.1114 56.6836 32.1425C56.7276 32.1887 56.7733 32.2569 56.8421 32.2697C56.8553 32.273 56.9073 32.2604 56.9353 32.2959C56.9402 32.3016 56.9237 32.3156 56.944 32.3229C56.9666 32.3306 56.9904 32.3357 57.0168 32.3385C57.117 32.3492 57.2181 32.3379 57.3167 32.325C57.362 32.3184 57.3464 32.3521 57.396 32.3456C57.4457 32.3396 57.5431 32.3065 57.5819 32.2687C57.6199 32.2317 57.5503 32.221 57.6105 32.1791C57.8264 32.0227 57.9901 31.7919 58.0369 31.5187C58.0475 31.4552 58.0577 31.3954 58.0683 31.3332C58.0785 31.2737 58.0544 31.3199 58.0686 31.2334C58.1161 30.9136 58.2416 30.348 58.3963 30.0916C58.5152 29.888 58.4162 30.1646 58.4984 30.0078C58.5385 29.9326 58.5346 29.8266 58.5433 29.8072C58.626 29.6189 58.7245 29.5128 58.8248 29.3628C58.8456 29.3321 58.8068 29.3487 58.8248 29.3226C58.8871 29.2328 58.965 29.1508 59.0289 29.0714C59.0574 29.0359 59.0397 29.0316 59.0678 29.0003C59.1344 28.9262 59.1984 28.8633 59.2729 28.802C59.2798 28.7963 59.2557 28.8542 59.3048 28.7998C59.3837 28.7123 59.4926 28.6134 59.5707 28.5025C59.5939 28.4694 59.5663 28.4444 59.6432 28.3968C59.6593 28.3867 59.6776 28.4337 59.7144 28.3337C59.72 28.3196 59.7668 28.2133 59.8278 28.1505C59.8434 28.1342 59.8598 28.121 59.8762 28.1126C59.8991 28.1006 59.9671 28.0822 60.0002 28.0424C60.0046 28.0368 59.9702 28.0421 60.0001 28.0107C60.1065 27.9002 60.2321 27.8036 60.3553 27.7115C60.3881 27.687 60.3258 27.7042 60.3756 27.6683C60.513 27.569 60.6968 27.4708 60.8424 27.4037C60.8962 27.3789 60.8676 27.4129 60.8723 27.4126C60.9474 27.4084 60.9653 27.3542 60.9849 27.342C61.1063 27.2672 61.212 27.2405 61.3274 27.1837C61.3593 27.1681 61.3284 27.1604 61.3341 27.1559C61.3944 27.1108 61.3586 27.1649 61.4025 27.1499C61.5252 27.1081 61.6568 27.0502 61.7733 26.9967C61.8162 26.977 61.7584 26.9774 61.7971 26.9599C62.0254 26.8556 62.2564 26.7525 62.4605 26.6454C62.4987 26.6253 62.4845 26.6542 62.4943 26.6529C62.5618 26.6452 62.617 26.5615 62.6297 26.5475C62.6947 26.4797 62.7304 26.4702 62.7856 26.4158C63.0063 26.2073 63.1007 25.9111 63.0312 25.5943C63.0199 25.5342 62.9968 25.4859 62.9623 25.442C62.7043 25.1599 62.2197 25.1119 61.7128 24.9929C61.7065 24.9914 61.7024 24.9913 61.6996 24.992C61.6886 24.9953 61.7012 25.0144 61.6798 25.0095C61.3436 24.928 61.0094 24.9144 60.6109 24.8575C60.5781 24.852 60.6215 24.8826 60.5683 24.8741C60.4591 24.857 60.3158 24.8155 60.2093 24.761C60.1574 24.7345 60.236 24.7487 60.1845 24.7223C60.0657 24.6604 59.9463 24.582 59.8412 24.5006C59.7966 24.4658 59.8474 24.5374 59.7913 24.4908C59.5933 24.3223 59.4403 24.1332 59.3037 23.9351C59.1698 23.7403 59.0673 23.5248 58.9993 23.3006C58.9897 23.2687 59.0228 23.2267 58.993 23.1641C58.9793 23.1631 58.9652 23.168 58.9515 23.17C58.7352 22.5109 58.7307 21.8552 58.6481 21.2236C58.6448 21.1969 58.6267 21.2461 58.6201 21.1945C58.5935 20.9899 58.5599 20.7933 58.5258 20.5932C58.5112 20.5074 58.4937 20.4279 58.4694 20.3461C58.4616 20.3215 58.5078 20.3163 58.4677 20.2475C58.4622 20.2352 58.3978 20.1362 58.372 20.1204C58.3686 20.1183 58.3645 20.1458 58.343 20.1183C58.2176 19.9575 58.0332 19.8573 57.8255 19.8373C57.7921 19.8342 57.8286 19.8141 57.8043 19.8119C57.6281 19.7967 57.4377 19.8705 57.2955 19.9495C57.2017 20.0054 57.2102 19.953 57.1398 19.9717C57.1287 19.9743 57.0832 20.0316 57.0645 20.0242C57.0135 20.0054 56.9899 19.9371 56.9333 19.92C56.9188 19.914 56.8625 20.0462 56.8766 19.9577C56.8762 19.9504 56.9262 19.8578 56.9364 19.8336C56.9429 19.8155 56.9051 19.8265 56.9231 19.7924C56.9422 19.758 56.983 19.7417 57.0216 19.696C57.0621 19.6513 57.0245 19.6446 57.1238 19.5771ZM54.7165 27.8328C54.7769 27.8813 54.8168 27.8171 54.7356 27.8013C54.7316 27.8006 54.7134 27.8303 54.7165 27.8328ZM55.2428 23.4336C55.1489 23.4775 55.1313 23.5574 55.1999 23.5297C55.2693 23.5008 55.2714 23.4198 55.2428 23.4336ZM55.8812 22.6442C55.7947 22.7225 55.8698 22.7996 55.9237 22.6857C55.9269 22.6791 55.8863 22.6396 55.8812 22.6442ZM57.3818 19.7901C57.3805 19.7891 57.3294 19.8133 57.329 19.8151C57.3141 19.849 57.4128 19.802 57.3818 19.7901ZM56.3578 21.7634C56.3295 21.7898 56.2995 21.8876 56.3349 21.8563C56.3635 21.8313 56.3931 21.731 56.3578 21.7634ZM56.2592 30.9416C56.2581 30.9427 56.2577 30.9855 56.264 30.9846C56.2842 30.9812 56.2777 30.9221 56.2592 30.9416ZM56.968 20.1841C56.8759 20.414 56.7461 20.5309 56.8456 20.2769C56.864 20.2311 56.8361 20.3862 56.8648 20.3295C56.9173 20.2269 56.8915 20.133 56.9701 20.0372C56.9832 20.0198 56.9718 20.1718 56.968 20.1845C56.968 20.1844 56.968 20.1842 56.968 20.1841ZM54.7201 27.9323C54.7209 27.9337 54.7745 27.9583 54.7764 27.958C54.8153 27.9492 54.7069 27.8995 54.7201 27.9323ZM57.5586 32.4998C57.5633 32.5023 57.6922 32.4413 57.6943 32.4355C57.7394 32.37 57.4887 32.4899 57.5586 32.4998ZM51.289 26.1359C51.2579 26.071 51.2546 25.9851 51.2885 25.9332C51.2825 26.0003 51.2836 26.0683 51.289 26.1359Z" fill="#222222"/>
</g>
<g filter="url(#filter3_g_131_8246)">
<path d="M22.5856 15.718C22.3972 14.7985 21.4551 14.9824 21.2666 15.3502C21.0782 15.718 20.8166 17.0466 19.7592 17.9248C18.8316 18.6953 18.6303 18.8444 17.3113 19.2121C16.8868 19.3305 16.9057 20.1458 17.3115 20.3156C18.6306 20.8673 18.9261 20.8285 20.1361 21.419C20.8898 21.7868 20.7014 22.3385 20.7014 23.258C20.7014 23.7759 20.7381 24.4991 21.2666 24.5453C21.7359 24.5863 22.1421 24.2649 22.2088 23.8097C22.3972 22.5224 22.7271 22.3149 23.5277 21.419C24.3327 20.5182 26.2288 20.5658 25.9772 19.396C25.889 18.9862 25.2629 18.9459 24.8467 18.8443C24.093 18.6604 23.7258 18.9082 23.1508 18.1087C22.6839 17.4594 22.774 16.6375 22.5856 15.718Z" fill="#222222"/>
<path d="M22.5856 15.718C22.3972 14.7985 21.4551 14.9824 21.2666 15.3502C21.0782 15.718 20.8166 17.0466 19.7592 17.9248C18.8316 18.6953 18.6303 18.8444 17.3113 19.2121C16.8868 19.3305 16.9057 20.1458 17.3115 20.3156C18.6306 20.8673 18.9261 20.8285 20.1361 21.419C20.8898 21.7868 20.7014 22.3385 20.7014 23.258C20.7014 23.7759 20.7381 24.4991 21.2666 24.5453C21.7359 24.5863 22.1421 24.2649 22.2088 23.8097C22.3972 22.5224 22.7271 22.3149 23.5277 21.419C24.3327 20.5182 26.2288 20.5658 25.9772 19.396C25.889 18.9862 25.2629 18.9459 24.8467 18.8443C24.093 18.6604 23.7258 18.9082 23.1508 18.1087C22.6839 17.4594 22.774 16.6375 22.5856 15.718Z" stroke="#222222" stroke-width="0.5"/>
</g>
<g filter="url(#filter4_g_131_8246)">
<path d="M28.3444 56.1123C28.1978 55.338 27.4651 55.4929 27.3185 55.8026C27.172 56.1123 26.9684 57.2312 26.1461 57.9707C25.4246 58.6195 25.268 58.7451 24.2422 59.0548C23.912 59.1545 23.9266 59.841 24.2423 59.984C25.2683 60.4486 25.4981 60.4159 26.4392 60.9132C27.0254 61.2229 26.8789 61.6875 26.8789 62.4618C26.8789 62.8979 26.9074 63.5069 27.3185 63.5459C27.6835 63.5804 27.9994 63.3098 28.0513 62.9264C28.1978 61.8423 28.4544 61.6676 29.0771 60.9132C29.7032 60.1546 31.178 60.1947 30.9823 59.2096C30.9137 58.8645 30.4267 58.8306 30.103 58.745C29.5168 58.5902 29.2312 58.7988 28.784 58.1256C28.4208 57.5788 28.4909 56.8867 28.3444 56.1123Z" fill="#222222"/>
<path d="M28.3444 56.1123C28.1978 55.338 27.4651 55.4929 27.3185 55.8026C27.172 56.1123 26.9684 57.2312 26.1461 57.9707C25.4246 58.6195 25.268 58.7451 24.2422 59.0548C23.912 59.1545 23.9266 59.841 24.2423 59.984C25.2683 60.4486 25.4981 60.4159 26.4392 60.9132C27.0254 61.2229 26.8789 61.6875 26.8789 62.4618C26.8789 62.8979 26.9074 63.5069 27.3185 63.5459C27.6835 63.5804 27.9994 63.3098 28.0513 62.9264C28.1978 61.8423 28.4544 61.6676 29.0771 60.9132C29.7032 60.1546 31.178 60.1947 30.9823 59.2096C30.9137 58.8645 30.4267 58.8306 30.103 58.745C29.5168 58.5902 29.2312 58.7988 28.784 58.1256C28.4208 57.5788 28.4909 56.8867 28.3444 56.1123Z" stroke="#222222" stroke-width="0.5"/>
</g>
<defs>
<filter id="filter0_g_131_8246" x="11.25" y="6.79883" width="52.251" height="61.5096" filterUnits="userSpaceOnUse" color-interpolation-filters="sRGB">
<feFlood flood-opacity="0" result="BackgroundImageFix"/>
<feBlend mode="normal" in="SourceGraphic" in2="BackgroundImageFix" result="shape"/>
<feTurbulence type="fractalNoise" baseFrequency="4 4" numOctaves="3" seed="1238" />
<feDisplacementMap in="shape" scale="0.5" xChannelSelector="R" yChannelSelector="G" result="displacedImage" width="100%" height="100%" />
<feMerge result="effect1_texture_131_8246">
<feMergeNode in="displacedImage"/>
</feMerge>
</filter>
<filter id="filter1_g_131_8246" x="50.5" y="48.5486" width="12" height="6.74274" filterUnits="userSpaceOnUse" color-interpolation-filters="sRGB">
<feFlood flood-opacity="0" result="BackgroundImageFix"/>
<feBlend mode="normal" in="SourceGraphic" in2="BackgroundImageFix" result="shape"/>
<feTurbulence type="fractalNoise" baseFrequency="4 4" numOctaves="3" seed="1238" />
<feDisplacementMap in="shape" scale="0.5" xChannelSelector="R" yChannelSelector="G" result="displacedImage" width="100%" height="100%" />
<feMerge result="effect1_texture_131_8246">
<feMergeNode in="displacedImage"/>
</feMerge>
</filter>
<filter id="filter2_g_131_8246" x="51.0146" y="19.1454" width="12.627" height="13.7534" filterUnits="userSpaceOnUse" color-interpolation-filters="sRGB">
<feFlood flood-opacity="0" result="BackgroundImageFix"/>
<feBlend mode="normal" in="SourceGraphic" in2="BackgroundImageFix" result="shape"/>
<feTurbulence type="fractalNoise" baseFrequency="4 4" numOctaves="3" seed="1238" />
<feDisplacementMap in="shape" scale="0.5" xChannelSelector="R" yChannelSelector="G" result="displacedImage" width="100%" height="100%" />
<feMerge result="effect1_texture_131_8246">
<feMergeNode in="displacedImage"/>
</feMerge>
</filter>
<filter id="filter3_g_131_8246" x="16.5" y="14.5488" width="10" height="10.5" filterUnits="userSpaceOnUse" color-interpolation-filters="sRGB">
<feFlood flood-opacity="0" result="BackgroundImageFix"/>
<feBlend mode="normal" in="SourceGraphic" in2="BackgroundImageFix" result="shape"/>
<feTurbulence type="fractalNoise" baseFrequency="4 4" numOctaves="3" seed="1238" />
<feDisplacementMap in="shape" scale="0.5" xChannelSelector="R" yChannelSelector="G" result="displacedImage" width="100%" height="100%" />
<feMerge result="effect1_texture_131_8246">
<feMergeNode in="displacedImage"/>
</feMerge>
</filter>
<filter id="filter4_g_131_8246" x="23.5" y="55.0488" width="8" height="9.00009" filterUnits="userSpaceOnUse" color-interpolation-filters="sRGB">
<feFlood flood-opacity="0" result="BackgroundImageFix"/>
<feBlend mode="normal" in="SourceGraphic" in2="BackgroundImageFix" result="shape"/>
<feTurbulence type="fractalNoise" baseFrequency="4 4" numOctaves="3" seed="1238" />
<feDisplacementMap in="shape" scale="0.5" xChannelSelector="R" yChannelSelector="G" result="displacedImage" width="100%" height="100%" />
<feMerge result="effect1_texture_131_8246">
<feMergeNode in="displacedImage"/>
</feMerge>
</filter>
</defs>
</svg>
